<svg xmlns="http://www.w3.org/2000/svg" viewBox="0 0 120 120" role="img" aria-label="Student avatar">
  <defs>
    <linearGradient id="bg" x1="0%" y1="0%" x2="100%" y2="100%">
      <stop offset="0%" stop-color="#3b82f6"/>
      <stop offset="100%" stop-color="#1d4ed8"/>
    </linearGradient>
  </defs>
  <circle cx="60" cy="60" r="60" fill="url(#bg)"/>
  <ellipse cx="60" cy="108" rx="34" ry="18" fill="#1e3a8a" opacity="0.35"/>
  <circle cx="60" cy="48" r="22" fill="#fde68a"/>
  <path fill="#1e3a5f" d="M38 44c2-10 10-16 22-16s20 6 22 16c-6-4-14-6-22-6s-16 2-22 6z"/>
  <ellipse cx="52" cy="50" rx="2.5" ry="3" fill="#1e293b"/>
  <ellipse cx="68" cy="50" rx="2.5" ry="3" fill="#1e293b"/>
  <path fill="none" stroke="#b45309" stroke-width="2" stroke-linecap="round" d="M54 58 Q60 63 66 58"/>
  <path fill="#2563eb" d="M32 78c4-14 14-22 28-22s24 8 28 22c-8 6-18 10-28 10s-20-4-28-10z"/>
</svg>
